<svg width="269" height="225" viewBox="0 0 269 225" fill="none" xmlns="http://www.w3.org/2000/svg">
<path d="M263.88 125.9C287.426 58.9075 212.832 -16.3698 117.956 3.13263C72.2501 12.5286 -13.5633 74.8506 1.82186 160.206C8.86566 199.285 69.7891 234.17 117.884 173.221C153.039 128.67 242.788 185.91 263.88 125.9Z" fill="#EDF2F9"/>
<path d="M171.081 217.77L198.041 214.736C202.984 214 207.639 212.041 211.587 209.035L226.47 197.703C229.184 195.636 228.248 191.289 224.897 190.404L178 178.023L171.081 217.77Z" fill="#171716"/>
<path d="M178.115 209.019L123.087 195.503C116.238 193.818 112.18 188.612 112.286 183.613L112.187 142.976C112.295 137.978 115.937 133.865 122.122 135.262L183.342 150.119C190.191 151.802 190.826 157.128 190.718 162.126L190.764 202.991C190.656 207.99 184.965 210.703 178.115 209.019Z" fill="#2C4469"/>
<path d="M178.493 214.889L188.019 207.909L162.847 147.712L116.566 135.694L102.472 143.724L178.493 214.889Z" fill="#2C4469"/>
<path d="M167.317 217.016L111.168 203.223C104.18 201.505 100.038 196.192 100.148 191.093L100.045 149.626C100.155 144.526 103.872 140.329 110.184 141.756L172.652 156.915C179.641 158.631 180.288 164.066 180.178 169.167L180.226 210.864C180.114 215.964 174.306 218.733 167.317 217.016Z" fill="#4269A2"/>
<path d="M174.078 205.881L104.871 189.198L104.947 150.135L174.154 166.82L174.078 205.881Z" fill="white"/>
<path d="M162.774 184.467L114.307 172.783L114.33 160.798L162.797 172.481L162.774 184.467Z" fill="#4269A2"/>
<path d="M162.775 184.467L155.155 182.629L155.178 170.645L162.798 172.481L162.775 184.467Z" fill="#DC9F22"/>
<path d="M119.596 170.726C119.801 170.774 119.986 170.76 120.151 170.681C120.315 170.603 120.458 170.453 120.58 170.233C120.702 170.013 120.796 169.719 120.861 169.347C120.929 168.976 120.962 168.522 120.964 167.986C120.964 167.45 120.932 166.982 120.869 166.584C120.803 166.186 120.709 165.85 120.589 165.58C120.469 165.311 120.326 165.098 120.161 164.943C119.997 164.789 119.813 164.687 119.608 164.637C119.401 164.587 119.216 164.6 119.046 164.675C118.878 164.748 118.733 164.891 118.611 165.104C118.489 165.316 118.396 165.605 118.33 165.973C118.263 166.339 118.23 166.791 118.228 167.327C118.226 168.399 118.351 169.21 118.602 169.756C118.853 170.304 119.186 170.626 119.596 170.726ZM119.594 171.483C118.884 171.312 118.33 170.849 117.938 170.095C117.544 169.342 117.347 168.349 117.349 167.115C117.353 165.882 117.551 164.993 117.948 164.445C118.344 163.896 118.899 163.707 119.61 163.878C120.312 164.048 120.861 164.502 121.254 165.241C121.65 165.98 121.846 166.966 121.842 168.199C121.841 169.431 121.641 170.329 121.243 170.892C120.847 171.456 120.298 171.653 119.594 171.483Z" fill="white"/>
<path d="M123.833 171.805C124.361 171.38 124.83 170.996 125.242 170.649C125.652 170.304 125.998 169.976 126.276 169.663C126.555 169.353 126.769 169.054 126.916 168.772C127.062 168.49 127.136 168.199 127.136 167.901C127.138 167.479 127.029 167.108 126.809 166.788C126.59 166.466 126.258 166.252 125.811 166.145C125.517 166.074 125.247 166.095 124.998 166.207C124.748 166.318 124.52 166.474 124.315 166.668L123.799 166.004C124.093 165.738 124.406 165.543 124.736 165.42C125.065 165.297 125.461 165.289 125.922 165.4C126.574 165.557 127.087 165.879 127.458 166.363C127.831 166.849 128.019 167.417 128.017 168.067C128.015 168.411 127.943 168.74 127.799 169.054C127.656 169.369 127.458 169.681 127.205 169.992C126.951 170.301 126.65 170.615 126.302 170.935C125.952 171.253 125.569 171.587 125.152 171.939C125.341 171.969 125.539 172.001 125.744 172.035C125.949 172.069 126.143 172.108 126.327 172.153L128.36 172.642L128.358 173.458L123.831 172.367L123.833 171.805Z" fill="white"/>
<path d="M132.662 173.874C132.867 173.924 133.051 173.91 133.217 173.83C133.382 173.751 133.525 173.603 133.647 173.383C133.769 173.164 133.862 172.867 133.928 172.497C133.995 172.126 134.029 171.672 134.03 171.137C134.03 170.601 133.999 170.133 133.935 169.735C133.87 169.335 133.776 169.001 133.656 168.731C133.535 168.459 133.392 168.247 133.228 168.093C133.064 167.938 132.88 167.836 132.675 167.788C132.468 167.738 132.282 167.75 132.113 167.824C131.945 167.899 131.8 168.041 131.678 168.254C131.556 168.467 131.462 168.756 131.397 169.122C131.33 169.49 131.296 169.942 131.294 170.478C131.292 171.549 131.418 172.358 131.669 172.906C131.92 173.453 132.252 173.776 132.662 173.874ZM132.661 174.633C131.95 174.462 131.397 173.999 131.004 173.246C130.61 172.492 130.414 171.497 130.416 170.265C130.419 169.033 130.617 168.142 131.015 167.593C131.411 167.045 131.964 166.857 132.675 167.029C133.378 167.199 133.928 167.652 134.32 168.392C134.716 169.129 134.912 170.115 134.909 171.349C134.907 172.581 134.707 173.48 134.31 174.042C133.914 174.607 133.364 174.803 132.661 174.633Z" fill="white"/>
<path d="M139.05 176.173C138.773 176.107 138.518 176.016 138.287 175.903C138.057 175.791 137.846 175.664 137.656 175.521C137.466 175.38 137.295 175.23 137.145 175.071C136.996 174.912 136.862 174.75 136.745 174.584L137.208 174.075C137.42 174.355 137.666 174.617 137.949 174.862C138.23 175.107 138.58 175.278 138.997 175.38C139.421 175.482 139.77 175.444 140.042 175.269C140.312 175.093 140.448 174.798 140.45 174.385C140.45 174.171 140.411 173.964 140.335 173.766C140.259 173.567 140.134 173.382 139.957 173.208C139.782 173.037 139.55 172.881 139.266 172.744C138.979 172.605 138.629 172.487 138.212 172.385V171.662C138.585 171.753 138.9 171.794 139.153 171.785C139.405 171.778 139.61 171.731 139.768 171.646C139.925 171.562 140.038 171.444 140.104 171.29C140.171 171.138 140.203 170.965 140.204 170.774C140.204 170.415 140.097 170.106 139.881 169.847C139.665 169.588 139.372 169.413 138.997 169.324C138.705 169.252 138.435 169.256 138.189 169.335C137.944 169.413 137.716 169.538 137.502 169.71L137.019 168.995C137.291 168.793 137.59 168.645 137.917 168.551C138.242 168.458 138.615 168.461 139.032 168.561C139.34 168.636 139.621 168.745 139.877 168.892C140.134 169.038 140.355 169.211 140.542 169.413C140.728 169.615 140.873 169.844 140.975 170.099C141.078 170.353 141.127 170.629 141.127 170.928C141.127 171.372 141.009 171.708 140.774 171.935C140.538 172.162 140.231 172.305 139.849 172.367V172.414C140.061 172.517 140.259 172.644 140.441 172.79C140.625 172.939 140.786 173.108 140.924 173.298C141.063 173.489 141.171 173.698 141.247 173.923C141.323 174.148 141.362 174.387 141.362 174.639C141.36 174.96 141.3 175.237 141.178 175.468C141.056 175.7 140.892 175.88 140.683 176.009C140.473 176.139 140.229 176.219 139.952 176.246C139.672 176.275 139.372 176.252 139.05 176.173Z" fill="white"/>
<path d="M146.336 175.01L146.34 172.885C146.341 172.687 146.347 172.453 146.357 172.183C146.37 171.914 146.382 171.681 146.398 171.487L146.354 171.476C146.265 171.631 146.173 171.781 146.078 171.926C145.982 172.073 145.884 172.221 145.781 172.371L144.139 174.482L146.336 175.01ZM148.148 176.205L147.192 175.975L147.188 177.997L146.331 177.791L146.334 175.769L143.181 175.009L143.183 174.389L146.191 170.424L147.202 170.669L147.193 175.218L148.148 175.448V176.205Z" fill="white"/>
<path d="M151.648 177.177C151.736 176.623 151.86 176.107 152.019 175.628C152.178 175.15 152.38 174.698 152.627 174.274C152.873 173.851 153.168 173.428 153.514 173.006L150.02 172.163L150.022 171.349L154.538 172.437L154.536 173.022C154.117 173.473 153.778 173.919 153.516 174.362C153.256 174.805 153.048 175.271 152.892 175.759C152.738 176.246 152.625 176.775 152.555 177.343C152.484 177.912 152.433 178.548 152.403 179.254L151.469 179.029C151.499 178.346 151.559 177.73 151.648 177.177Z" fill="white"/>
<path d="M158.633 177.78C158.355 177.713 158.101 177.623 157.869 177.511C157.639 177.396 157.431 177.271 157.243 177.136C157.058 176.998 156.888 176.852 156.74 176.698C156.589 176.543 156.455 176.386 156.338 176.227L156.78 175.712C156.984 175.984 157.228 176.239 157.509 176.475C157.79 176.711 158.136 176.879 158.546 176.979C158.758 177.029 158.958 177.037 159.145 177.002C159.333 176.966 159.495 176.893 159.635 176.78C159.775 176.67 159.884 176.52 159.966 176.332C160.047 176.144 160.087 175.925 160.087 175.671C160.089 175.166 159.955 174.739 159.684 174.391C159.414 174.042 159.052 173.812 158.597 173.703C158.355 173.644 158.148 173.633 157.977 173.669C157.804 173.703 157.611 173.769 157.399 173.862L156.916 173.424L157.153 169.954L160.658 170.799L160.657 171.613L157.943 170.96L157.752 173.085C157.92 173.035 158.088 173.003 158.258 172.989C158.426 172.976 158.617 172.996 158.829 173.046C159.129 173.119 159.41 173.233 159.674 173.389C159.937 173.544 160.169 173.739 160.367 173.975C160.563 174.21 160.718 174.485 160.832 174.8C160.945 175.114 161.001 175.471 161 175.868C161 176.266 160.932 176.603 160.8 176.877C160.667 177.152 160.49 177.368 160.271 177.525C160.05 177.684 159.799 177.784 159.518 177.827C159.235 177.87 158.94 177.854 158.633 177.78Z" fill="white"/>
<path d="M122.813 163.653L122.796 173.253C122.796 173.33 122.858 173.392 122.934 173.392C123.011 173.394 123.073 173.33 123.073 173.253L123.091 163.653C123.093 163.577 123.029 163.514 122.953 163.514C122.877 163.514 122.815 163.577 122.813 163.653Z" fill="#2A5241"/>
<path d="M129.261 165.207L129.242 174.807C129.242 174.884 129.304 174.948 129.381 174.948C129.457 174.948 129.519 174.885 129.519 174.807L129.539 165.209C129.539 165.13 129.477 165.068 129.401 165.068C129.323 165.068 129.261 165.13 129.261 165.207Z" fill="#2A5241"/>
<path d="M135.707 166.761L135.69 176.361C135.69 176.439 135.752 176.502 135.828 176.502C135.904 176.502 135.967 176.439 135.967 176.362L135.985 166.763C135.985 166.684 135.923 166.622 135.847 166.622C135.771 166.622 135.707 166.684 135.707 166.761Z" fill="#2A5241"/>
<path d="M142.156 168.317L142.136 177.914C142.136 177.993 142.198 178.055 142.274 178.055C142.352 178.055 142.414 177.993 142.414 177.916L142.433 168.317C142.433 168.24 142.372 168.175 142.294 168.175C142.218 168.175 142.156 168.238 142.156 168.317Z" fill="#2A5241"/>
<path d="M148.602 169.87L148.585 179.47C148.583 179.547 148.646 179.609 148.722 179.609C148.798 179.609 148.862 179.547 148.862 179.47L148.88 169.87C148.88 169.794 148.818 169.731 148.742 169.731C148.666 169.729 148.602 169.794 148.602 169.87Z" fill="#2A5241"/>
<path d="M161.516 194.636L115.526 183.551C114.845 183.386 114.288 182.669 114.29 181.958C114.292 181.245 114.849 180.797 115.531 180.961L161.521 192.047C162.202 192.211 162.757 192.929 162.757 193.641C162.755 194.352 162.197 194.801 161.516 194.636Z" fill="#E6EDDD"/>
<path d="M144.853 190.62L130.136 187.073L130.142 184.483L144.858 188.03L144.853 190.62Z" fill="#DC9F22"/>
<path d="M107.329 191.922L171.939 208.113C172.12 208.158 172.304 208.047 172.348 207.865C172.392 207.683 172.282 207.499 172.102 207.452L107.492 191.263C107.312 191.216 107.13 191.329 107.084 191.511C107.04 191.693 107.149 191.877 107.329 191.922Z" fill="#2C4A77"/>
<path d="M219.196 105.385L218.859 105.384C218.857 107.054 217.515 108.406 215.864 108.406H215.852L215.856 108.747L215.858 108.406C214.202 108.404 212.866 107.048 212.866 105.379V105.376L212.656 105.375L212.866 105.382V105.376L212.656 105.375L212.866 105.382V105.372C212.868 103.702 214.21 102.35 215.864 102.351H215.865H215.867C217.521 102.354 218.859 103.709 218.859 105.378V105.392L219.196 105.385L219.532 105.379L219.377 105.382H219.532V105.379L219.377 105.382H219.532V105.378C219.532 103.334 217.894 101.675 215.869 101.671V102.011L215.873 101.671H215.864C213.839 101.671 212.197 103.326 212.193 105.371L212.529 105.372L212.193 105.362V105.379C212.193 107.423 213.831 109.081 215.856 109.086H215.86H215.864C217.886 109.086 219.526 107.43 219.532 105.386V105.379L219.196 105.385Z" fill="#4269A2"/>
<path d="M89.3744 56.7956L89.0385 56.7939C89.035 58.4637 87.6934 59.8175 86.0425 59.8157H86.0337H86.0354C84.3829 59.8139 83.0449 58.4584 83.0451 56.7885V56.7849V56.7831C83.0481 55.1132 84.3895 53.7613 86.0425 53.7613H86.046H86.0478C87.7005 53.7631 89.0385 55.1186 89.0385 56.7885V56.7974V56.7939L89.3744 56.7956L89.7102 56.7921V56.7885C89.7102 54.7435 88.0735 53.0862 86.0496 53.0808H86.0513H86.0425C84.0185 53.0808 82.3767 54.7364 82.3725 56.7813V56.7795V56.7885C82.3727 58.8334 84.0103 60.4908 86.0337 60.4962H86.0354H86.0425C88.0646 60.4962 89.7067 58.8406 89.7102 56.7956V56.7921L89.3744 56.7956Z" fill="#4269A2"/>
<path d="M35.5083 158.453H35.1721C35.1691 160.123 33.8277 161.475 32.1756 161.475H32.1623L32.1689 161.814L32.1696 161.475C30.5167 161.471 29.1785 160.116 29.1787 158.447V158.442L29.1788 158.44C29.1818 156.77 30.5233 155.418 32.1752 155.418H32.1782L32.1784 155.338L32.1772 155.418H32.1782L32.1784 155.338L32.1772 155.418H32.1814C33.8343 155.422 35.1723 156.778 35.1721 158.447V158.453H35.5083H35.8447V158.447C35.8445 156.403 34.2069 154.743 32.1827 154.74L32.1821 155.079L32.1869 154.74H32.1752C30.1521 154.74 28.5105 156.394 28.5063 158.44V158.439V158.447C28.5065 160.491 30.1441 162.15 32.1682 162.155H32.1752H32.1756C34.1988 162.153 35.8405 160.5 35.8447 158.455V158.453H35.5083Z" fill="#4269A2"/>
<path d="M183.876 133.119L163.178 127.7L167.317 103.563C170.421 103.698 173.718 104.413 177.223 105.752C182.912 108.056 184.212 128.266 183.876 133.119Z" fill="#99BBEC"/>
<path d="M128.261 143.142C127.75 128.325 128.498 114.27 131.681 103.491C133.657 99.6658 135.793 95.3223 145.774 97.5262L171.137 103.131C174.356 103.968 175.225 104.484 177.23 105.751C174.379 104.842 171.04 105.54 168.724 110.332C167.409 114.236 164.664 132.292 164.565 151.97L128.261 143.142Z" fill="white"/>
<path d="M140.229 109.439L161.608 114.163C161.723 114.188 161.834 114.114 161.859 114C161.884 113.886 161.811 113.772 161.698 113.747L140.319 109.023C140.206 108.998 140.093 109.071 140.068 109.185C140.044 109.299 140.116 109.414 140.229 109.439Z" fill="#BDE6D4"/>
<path d="M139.271 116.961L153.687 120.146C153.8 120.171 153.912 120.097 153.936 119.983C153.961 119.869 153.89 119.754 153.775 119.729L139.361 116.545C139.248 116.52 139.135 116.593 139.11 116.708C139.085 116.822 139.158 116.936 139.271 116.961Z" fill="#BDE6D4"/>
<path d="M137.795 128.554L159.174 133.278C159.287 133.303 159.4 133.23 159.425 133.115C159.449 133.001 159.377 132.887 159.264 132.862L137.885 128.138C137.77 128.113 137.659 128.186 137.634 128.3C137.609 128.416 137.682 128.529 137.795 128.554Z" fill="#BDE6D4"/>
<path d="M136.837 136.076L151.252 139.261C151.365 139.286 151.478 139.214 151.503 139.098C151.527 138.984 151.455 138.871 151.342 138.846L136.927 135.66C136.812 135.635 136.701 135.708 136.676 135.823C136.652 135.937 136.724 136.051 136.837 136.076Z" fill="#BDE6D4"/>
<path d="M236.061 217.091C236.081 221.143 228.485 224.467 219.095 224.514C209.705 224.56 202.077 221.311 202.057 217.259C202.039 213.207 209.635 209.885 219.025 209.838C228.415 209.792 236.043 213.039 236.061 217.091Z" fill="#171716"/>
<path d="M220.366 220.377C216.906 222.429 211.258 222.458 207.749 220.445C204.241 218.431 204.2 215.135 207.659 213.083C211.119 211.033 216.767 211.003 220.276 213.017C223.784 215.032 223.825 218.327 220.366 220.377Z" fill="#4269A2"/>
<path d="M226.637 211.124L201.233 211.707L201.045 184.424L226.455 184.246L226.637 211.124Z" fill="#4A75B5"/>
<path d="M222.965 216.659C218.028 219.613 209.983 219.688 204.997 216.826C200.01 213.963 199.969 209.248 204.908 206.294C209.848 203.34 217.893 203.265 222.879 206.128C227.865 208.99 227.905 213.705 222.965 216.659Z" fill="#4A75B5"/>
<path d="M226.546 191.673C226.366 191.561 226.183 191.448 225.991 191.339C219.194 187.437 208.25 187.494 201.549 191.468C201.41 191.55 201.273 191.634 201.14 191.72C201.14 191.72 201.005 202.687 201.173 202.784C207.97 206.686 219.464 209.57 226.165 205.599C226.327 205.502 226.484 205.404 226.64 205.304L226.546 191.673Z" fill="#4A75B5"/>
<path d="M226.105 202.95C219.401 206.924 208.459 206.981 201.662 203.078C194.865 199.176 194.787 192.791 201.489 188.819C208.19 184.846 219.132 184.788 225.929 188.691C232.728 192.593 232.806 198.976 226.105 202.95Z" fill="#4269A2"/>
<path d="M231.08 196.069L196.515 196.31L196.473 189.872L231.036 189.632L231.08 196.069Z" fill="#4269A2"/>
<path d="M226.062 196.817C219.36 200.791 208.418 200.848 201.618 196.946C194.822 193.044 194.743 186.659 201.447 182.687C208.147 178.713 219.091 178.656 225.886 182.558C232.684 186.461 232.762 192.844 226.062 196.817Z" fill="#34588E"/>
<path d="M246.039 154.178C246.675 138.256 233.289 124.783 216.143 124.083C198.995 123.385 184.578 135.726 183.942 151.648C183.595 160.367 187.45 168.35 193.826 173.904C197.27 178.055 198.721 183.049 199.33 186.642C199.92 190.123 202.262 193.016 205.521 194.297C210.796 196.372 215.948 196.811 220.944 195.138C224.117 194.077 226.516 191.425 227.316 188.146C228.124 184.843 229.895 180.109 233.771 176.14C233.879 176.026 233.981 175.915 234.072 175.806C241.062 170.793 245.686 163.042 246.039 154.178Z" fill="#F3B83F"/>
<path d="M220.476 191.804C216.734 193.852 210.742 193.679 207.091 191.415C203.442 189.15 203.516 185.653 207.258 183.605C211 181.555 216.992 181.73 220.641 183.992C224.292 186.257 224.218 189.754 220.476 191.804Z" fill="#DC9F22"/>
<path d="M211.639 186.437L211.551 164.298V164.295C211.462 160.06 210.693 157.181 209.631 155.338C209.096 154.418 208.489 153.758 207.853 153.325C207.219 152.893 206.554 152.691 205.922 152.691C205.05 152.691 204.249 153.075 203.669 153.724C203.094 154.372 202.74 155.281 202.74 156.333C202.74 156.849 202.823 157.399 203.01 157.971C203.107 158.271 203.284 158.578 203.533 158.889C204.28 159.821 205.665 160.796 207.517 161.457C209.697 162.232 211.897 162.584 214.093 162.584C215.83 162.584 217.568 162.364 219.293 161.959C220.649 161.641 221.979 160.982 223.014 160.141C223.533 159.719 223.975 159.251 224.307 158.753C224.64 158.255 224.864 157.722 224.926 157.178C224.959 156.912 224.975 156.651 224.975 156.399C224.975 155.143 224.595 154.084 223.975 153.336C223.356 152.588 222.489 152.152 221.553 152.152C220.88 152.152 220.178 152.375 219.509 152.845C218.505 153.552 217.575 154.806 216.889 156.712C216.2 158.617 215.753 161.176 215.725 164.514V164.518L215.924 186.51C215.926 186.639 216.031 186.744 216.159 186.743C216.29 186.741 216.393 186.635 216.391 186.505L216.192 164.514L215.959 164.516L216.192 164.518C216.229 160.123 217.005 157.128 218.056 155.251C218.581 154.313 219.174 153.654 219.775 153.232C220.376 152.811 220.983 152.624 221.553 152.624C222.345 152.624 223.074 152.984 223.617 153.638C224.158 154.292 224.508 155.238 224.508 156.399C224.508 156.631 224.494 156.872 224.465 157.122C224.411 157.574 224.222 158.038 223.92 158.489C223.471 159.165 222.769 159.81 221.938 160.337C221.108 160.864 220.147 161.276 219.188 161.5C217.492 161.898 215.792 162.112 214.093 162.112C211.946 162.112 209.802 161.769 207.672 161.012C206.482 160.589 205.498 160.03 204.776 159.453C204.414 159.164 204.119 158.873 203.897 158.594C203.673 158.315 203.525 158.051 203.453 157.824C203.282 157.297 203.204 156.797 203.204 156.333C203.204 155.388 203.522 154.595 204.018 154.04C204.514 153.482 205.187 153.163 205.922 153.163C206.457 153.163 207.027 153.331 207.595 153.717C208.445 154.293 209.285 155.367 209.931 157.087C210.575 158.807 211.02 161.169 211.086 164.304L211.318 164.298L211.086 164.3L211.172 186.441C211.172 186.569 211.277 186.675 211.407 186.675C211.534 186.675 211.639 186.567 211.639 186.437Z" fill="#4269A2"/>
<path d="M201.476 140.702C200.543 142.956 198.426 144.206 196.746 143.497C195.069 142.786 194.464 140.384 195.398 138.132C196.332 135.878 198.449 134.626 200.128 135.337C201.804 136.046 202.41 138.448 201.476 140.702Z" fill="white"/>
<path d="M65.7354 170.387L78.8009 170.474L78.8603 161.442L65.7946 161.355L65.7354 170.387Z" fill="#1B2D54"/>
<path d="M109.749 124.321C110.112 125.046 109.928 125.861 109.344 126.132L106.903 126.602C106.318 126.873 105.376 125.345 106.371 124.58L108.043 123.852C108.261 123.757 108.492 123.689 108.733 123.671C109.178 123.635 109.465 123.75 109.749 124.321Z" fill="#DE5840"/>
<path d="M80.4089 124.762L96.7501 129.981L105.752 124.418L107.202 125.798C107.75 126.321 107.767 127.252 107.244 127.991L99.0815 136.008C97.5154 138.219 94.9242 138.287 92.6617 137.716L79.7093 134.026L80.4089 124.762Z" fill="#4A75B5"/>
<path d="M91.4531 214.482C86.8079 212.455 78.9553 212.594 73.9156 214.793C73.0558 215.168 72.3368 215.58 71.7529 216.014C68.4925 215.214 64.1082 215.484 61.1233 216.788C57.5821 218.333 57.358 220.74 60.6225 222.164C63.7598 223.533 68.9724 223.492 72.5172 222.115C72.7332 222.228 72.9598 222.339 73.2031 222.446C77.8491 224.473 85.7014 224.334 90.7407 222.133C95.7801 219.935 96.0982 216.507 91.4531 214.482Z" fill="#171716"/>
<path d="M72.6152 220.204L69.4956 216.113C68.8931 215.323 67.9886 214.848 66.9903 214.827C66.6318 214.82 66.2657 214.843 65.9219 214.9C65.4604 214.977 65.191 215.273 65.1157 215.722L64.9208 216.554C64.6371 217.949 64.4158 218.408 65.2474 218.868L70.1857 221.596C71.1734 222.423 74.2416 222.021 72.6152 220.204Z" fill="#665656"/>
<path d="M65.5454 215.078C65.5963 216.014 66.3345 216.834 67.255 216.814C67.7112 216.804 68.0541 216.566 68.2219 215.721C69.2467 206.172 71.1417 198.301 72.1054 189.375C73.1873 179.352 72.5584 182.281 74.1934 166.915L65.2859 164.23C65.891 175.464 65.1205 189.496 65.1205 189.496C61.4657 199.541 64.8842 202.925 65.5454 215.078Z" fill="#DE5840"/>
<path d="M61.2003 157.233L64.3008 184.549C64.3754 187.1 64.9697 188.457 64.0818 191.423C62.9889 195.078 62.5244 202.543 64.4553 213.591C65.7776 214.859 67.2995 214.959 68.9919 214.062C68.9919 214.062 73.1645 190.177 73.684 185.549C74.2035 180.92 76.014 155.906 76.014 155.906L61.2003 157.233Z" fill="#221D1D"/>
<path d="M89.2418 216.077L85.3779 212.401C84.6325 211.692 83.6485 211.335 82.6585 211.439C82.3027 211.476 81.9457 211.546 81.6171 211.646C81.1759 211.78 80.9664 212.108 80.9777 212.564L80.9442 213.416C80.9305 214.839 80.7997 215.323 81.709 215.675L87.1084 217.766C88.2414 218.463 91.195 217.675 89.2418 216.077Z" fill="#665656"/>
<path d="M81.4959 211.641C81.6636 212.576 82.5029 213.357 83.419 213.284C83.8729 213.246 84.1853 212.989 84.2471 212.132C84.0762 202.502 84.9837 194.506 84.8299 185.505C84.6563 175.398 84.3949 178.368 84.1059 162.875L74.8815 160.698C76.8894 171.923 77.8743 186.028 77.8743 186.028C75.4826 196.305 79.3172 199.501 81.4959 211.641Z" fill="#DE5840"/>
<path d="M69.9296 153.922L76.4378 181.118C76.8309 183.671 77.5936 184.996 77.0785 188.021C76.4445 191.745 76.914 199.253 80.2218 210.214C81.6998 211.408 83.2313 211.421 84.8086 210.426C84.8086 210.426 85.9858 186.248 85.9258 181.579C85.8657 176.911 84.5463 151.738 84.5463 151.738L69.9296 153.922Z" fill="#221D1D"/>
<path d="M78.117 124.148C76.8689 124.128 75.7244 123.962 75.388 123.732C73.4997 122.435 71.247 123.316 71.0057 123.475L64.6889 125.498C56.7184 127.632 57.9508 133.147 57.7422 136.639C57.7422 136.639 60.9482 141.122 61.0567 144.41C61.1506 147.255 62.7257 153.65 62.2553 154.574C61.9032 155.263 61.8366 159.506 65.2611 160.599C68.2868 161.566 73.1515 164.393 75.7537 164.332C89.4395 164.011 85.7612 156.778 85.565 152.075C85.4395 149.116 84.8863 140.379 84.9198 138.032C84.9534 135.683 86.0405 129.915 82.4159 126.188C81.8932 125.746 80.2671 124.259 78.117 124.148Z" fill="#4A75B5"/>
<path d="M72.4047 126.198L72.6956 125.948C73.4605 126.18 74.1357 126.139 74.2743 125.468L75.0561 121.673C75.1946 121.001 74.6822 120.26 73.9172 120.026L73.6906 119.958C72.9256 119.724 70.8065 119.655 70.6679 120.328L70.1937 124.359C70.0551 125.032 71.6397 125.966 72.4047 126.198Z" fill="#DE5840"/>
<path d="M74.6334 123.705C74.6334 123.705 72.9922 123.501 72.0091 121.754C72.0091 121.754 72.9558 124.305 74.4397 124.73L74.6334 123.705Z" fill="#BA422D"/>
<path d="M70.7427 115.711C71.252 114.639 72.1526 114.382 73.0556 114.898C73.857 114.47 74.9112 114.912 75.7733 116.186C76.9738 117.961 77.7367 120.874 76.9939 122.439C76.6696 123.123 75.7941 123.58 75.2184 123.642C74.6798 123.699 73.2331 123.371 72.6952 123.215C70.7684 122.658 71.2709 123.005 70.4712 121.822C69.2709 120.047 69.9998 117.277 70.7427 115.711Z" fill="#DE5840"/>
<path d="M70.9714 116.559C70.4314 118.411 71.1047 121.417 71.0471 121.974C71.0471 121.974 68.0056 120.215 68.0261 118.603C68.0947 113.225 71.4676 115.806 71.4676 115.806L70.9714 116.559Z" fill="#573711"/>
<path d="M70.6851 113.882C69.6081 114.245 69.014 115.138 68.7961 116.631C68.7683 116.82 68.4539 117.697 68.4528 117.856L69.142 117.586C69.1339 118.86 69.3212 117.279 70.5999 117.399C72.4813 116.508 72.8539 114.132 75.3955 116.942C75.6193 117.19 76.0985 116.777 75.7731 116.186C74.5145 113.898 73.5493 113.857 72.8113 113.736L72.4429 113.711C71.7527 113.664 71.1699 113.72 70.6851 113.882Z" fill="#573711"/>
<path d="M69.456 121.004C69.4631 121.605 69.9513 122.099 70.5462 122.11C71.1412 122.121 71.6177 121.644 71.6105 121.044C71.6034 120.444 71.1152 119.949 70.5203 119.938C69.9253 119.927 69.4488 120.404 69.456 121.004Z" fill="#DE5840"/>
<path d="M74.6558 123.609C75.075 123.725 75.4979 123.623 75.8823 123.478C75.8823 123.478 76.2187 126.387 75.3022 127.123L73.6672 125.998C73.6672 125.998 74.6765 124.743 74.6558 123.609Z" fill="white"/>
<path d="M73.5939 125.954L72.462 127.624C72.462 127.624 68.5325 126.327 68.4234 124.348L70.1737 123.609C70.1737 123.609 72.0628 126.07 73.5939 125.954Z" fill="white"/>
<path d="M59.6834 157.154C59.9215 155.547 60.0716 147.287 59.9777 144.444C59.9164 142.583 59.7684 137.159 59.5613 134.401C60.87 137.019 61.8167 138.016 61.9484 138.659C62.9849 143.715 63.2042 146.48 65.5689 149.403C70.1052 155.013 71.2849 158.605 75.7538 164.332C65.2415 164.237 63.3066 163.657 61.3295 162.48C58.8747 161.017 59.5616 157.976 59.6834 157.154Z" fill="#4A75B5"/>
<path d="M84.6705 133.856L84.3325 138.453C84.3237 138.573 84.4129 138.678 84.5315 138.687C84.6503 138.696 84.7536 138.605 84.7624 138.486L85.1018 133.888C85.1106 133.769 85.0204 133.665 84.902 133.656C84.7836 133.647 84.6793 133.737 84.6705 133.856Z" fill="#557D45"/>
<path d="M51.9804 161.85L73.2581 153.754L67.6543 138.72L46.3766 146.815L51.9804 161.85Z" fill="white"/>
<path d="M63.3708 159.031C62.729 159.522 61.8768 159.487 61.4768 158.954L60.4675 156.609C60.0668 156.075 59.767 155.69 60.4099 155.199C61.0515 154.707 61.6513 154.738 62.3633 155.713L63.4602 157.247C63.603 157.447 63.7207 157.665 63.7929 157.901C63.9265 158.338 63.8758 158.644 63.3708 159.031Z" fill="#DE5840"/>
<path d="M60.0868 127.909C60.0868 127.909 50.5543 135.698 48.0396 143.113C45.5249 150.527 60.2364 157.119 60.2364 157.119L62.4836 155.51C62.8207 155.268 62.834 154.752 62.5093 154.47C60.4889 152.716 54.5029 147.349 55.3503 146.069C56.7603 143.936 66.232 134.685 66.232 134.685L60.0868 127.909Z" fill="#4A75B5"/>
<path d="M62.0347 139.639L62.7506 134.765C62.7681 134.646 62.6868 134.535 62.5689 134.517C62.4512 134.499 62.3414 134.581 62.3239 134.701L61.6082 139.575C61.5907 139.695 61.672 139.805 61.7897 139.823C61.9076 139.839 62.0172 139.757 62.0347 139.639Z" fill="#557D45"/>
<path d="M76.043 121.98C76.408 121.892 76.4351 121.337 76.3716 120.753L75.0498 121.074C75.4945 122.101 76.043 121.98 76.043 121.98Z" fill="white"/>
<path d="M71.2127 120.285C71.1528 119.213 70.9788 118.069 70.7771 117.322C72.4767 117.695 74.2465 117.57 75.8766 116.959C76.2582 116.817 76.6455 116.636 76.9196 116.299C77.1936 115.959 77.324 115.424 77.1294 115.007C76.9553 114.634 76.5675 114.45 76.2066 114.45C75.8457 114.452 75.502 114.606 75.1678 114.756C75.7522 114.729 76.083 113.834 75.8174 113.22C75.5517 112.605 74.8919 112.325 74.3121 112.407C73.7325 112.491 73.2199 112.861 72.7526 113.261C72.2854 113.661 71.4987 113.889 70.9626 114.15C70.2453 114.5 69.6369 114.822 69.3309 115.654C69.1605 116.116 69.2636 116.654 69.3689 117.151C69.5001 117.767 70.0445 119.27 70.4982 120.474C70.6677 120.923 71.2399 120.771 71.2127 120.285Z" fill="#573711"/>
<path d="M128.388 135.546C128.388 135.546 128.39 135.45 128.397 135.264C128.448 133.869 128.692 127.543 129.198 120.796C129.45 117.42 129.769 113.941 130.159 110.923C130.355 109.412 130.569 108.019 130.803 106.812C131.034 105.604 131.287 104.585 131.556 103.829C132.211 101.979 133.369 100.195 134.872 98.882C136.374 97.5676 138.214 96.7246 140.256 96.7246C140.607 96.7246 140.964 96.7496 141.329 96.8032C141.458 96.821 141.576 96.73 141.594 96.6014C141.611 96.471 141.523 96.3513 141.394 96.3335C141.009 96.2781 140.629 96.2513 140.256 96.2513C138.083 96.2513 136.134 97.1515 134.564 98.5231C132.994 99.8965 131.798 101.743 131.114 103.668C130.815 104.515 130.543 105.64 130.295 106.967C129.426 111.612 128.834 118.746 128.457 124.727C128.079 130.708 127.918 135.53 127.918 135.532C127.914 135.662 128.015 135.771 128.146 135.777C128.275 135.78 128.383 135.678 128.388 135.546Z" fill="#4269A2"/>
</svg>
